<svg width="512" height="512" viewBox="0 0 512 512" fill="none" xmlns="http://www.w3.org/2000/svg">
<path d="M63 210.295C63 94.3211 149.253 0 256 0C362.748 0 449 94.3211 449 210.295C449 276.848 424.42 328.768 377.257 373.888C346.871 402.96 292.558 466.389 269.847 503.908C266.742 509.04 261.417 512.093 255.74 511.998C250.064 511.9 244.83 508.669 241.875 503.437C220.543 465.66 165.426 403.244 134.743 373.888C87.5809 328.768 63 276.848 63 210.295Z" fill="#800020"/>
<rect x="146" y="94" width="221" height="229" rx="18" stroke="white" stroke-width="14"/>
<rect x="165.468" y="95.0731" width="53.7907" height="145.316" rx="10" fill="white"/>
<rect x="187.668" y="221.013" width="10.2458" height="108.987" fill="white"/>
<rect x="229.505" y="95.0731" width="53.7907" height="145.316" rx="10" fill="white"/>
<rect x="251.704" y="221.013" width="10.2458" height="108.987" fill="white"/>
<rect x="293.542" y="95.0731" width="53.7907" height="145.316" rx="10" fill="white"/>
<rect x="315.741" y="221.013" width="10.2458" height="108.987" fill="white"/>
</svg>
